<?xml version="1.0" encoding="UTF-8"?>
<svg version="1.1" xmlns="http://www.w3.org/2000/svg" width="512" height="512">
<path d="M0 0 C0.69359757 -0.00235223 1.38719514 -0.00470446 2.10181081 -0.00712797 C4.44326707 -0.01382433 6.78466792 -0.01335956 9.12613297 -0.01294994 C10.81490229 -0.01624817 12.50367083 -0.01997364 14.19243836 -0.02409142 C18.84679247 -0.03412416 23.50113368 -0.03783026 28.15549707 -0.04048073 C33.16994559 -0.04437997 38.18438385 -0.05395851 43.19882584 -0.0626936 C55.31487903 -0.08246796 67.43093308 -0.09252509 79.54699838 -0.10142139 C85.24932369 -0.10580237 90.95164806 -0.11116964 96.65397263 -0.11641026 C115.60367388 -0.1334229 134.55337455 -0.14791808 153.50308228 -0.155159 C158.42204921 -0.15706896 163.34101614 -0.15898928 168.25998306 -0.16094494 C169.48260244 -0.16142868 170.70522182 -0.16191242 171.96489027 -0.16241082 C191.77990306 -0.17071488 211.59485554 -0.196058 231.40984198 -0.22852562 C251.7422851 -0.26157019 272.07469755 -0.27960537 292.40716767 -0.28280324 C303.82766473 -0.28497066 315.24807384 -0.29375335 326.66854477 -0.31926441 C336.39270318 -0.3409358 346.11675228 -0.34903937 355.8409321 -0.33929763 C360.80380863 -0.3347427 365.76645947 -0.33670836 370.72930527 -0.35605907 C375.27185255 -0.37361833 379.81400828 -0.37275212 384.35655931 -0.35716178 C386.0005988 -0.35477468 387.64466489 -0.3591661 389.2886636 -0.37099043 C391.52332245 -0.38606854 393.75658655 -0.37646693 395.99121094 -0.36076355 C397.23240936 -0.36174036 398.47360778 -0.36271717 399.75241828 -0.36372358 C404.93698681 0.3749673 408.85948217 2.33007382 412.12228775 6.57172108 C413.89287421 10.60472358 414.37339264 14.42601855 414.35801983 18.80375576 C414.35732728 19.71812676 414.35663474 20.63249776 414.35592121 21.57457697 C414.35007812 22.57037189 414.34423503 23.56616681 414.33821487 24.59213734 C414.33609719 25.65697798 414.33397951 26.72181863 414.33179766 27.81892717 C414.32372851 31.39361662 414.30869115 34.96824495 414.29391861 38.54291248 C414.28712891 41.10392077 414.28091744 43.66493066 414.27524185 46.22594166 C414.26599754 50.32131864 414.25648401 54.41669103 414.24466407 58.51206136 C414.21558884 68.68051122 414.20411075 78.84887965 414.20323563 89.01736927 C414.20309506 90.12203417 414.20309506 90.12203417 414.20295166 91.24901552 C414.20222972 97.3145174 414.20222639 103.38001924 414.20245175 109.44552115 C414.20261294 114.90816096 414.20210123 120.37080019 414.20065689 125.83343983 C414.2004589 126.61216011 414.20026091 127.39088039 414.20005692 128.19319825 C414.19586844 140.78019795 414.15937423 153.36691684 414.11170071 165.9538178 C414.06349864 178.90071649 414.0537122 191.8472575 414.07804018 204.79422414 C414.09176265 212.76484158 414.07581699 220.73423381 414.02057201 228.70467661 C413.98123318 234.83450986 413.99522931 240.96321549 414.02810287 247.0930624 C414.03333503 249.59102454 414.02177604 252.08909307 413.99131584 254.58687496 C413.81408975 270.08367565 415.57868969 281.12030786 424.06585771 294.25667012 C425.75135521 296.93529462 427.12175566 299.70978157 428.50632095 302.55463123 C429.20172737 303.9503989 429.20172737 303.9503989 429.9111824 305.3743639 C430.36885498 306.29800739 430.82652756 307.22165089 431.298069 308.17328358 C432.05811485 309.69905521 432.05811485 309.69905521 432.83351517 311.25565052 C434.41096862 314.42250263 435.98573791 317.59067603 437.55978775 320.75922108 C439.65766386 324.9817669 441.75831522 329.20291585 443.860569 333.42328358 C444.32836273 334.36716938 444.79615646 335.31105518 445.27812576 336.28354359 C447.41252837 340.56809182 449.60099985 344.75001402 452.0468483 348.86542225 C454.20263689 352.7104186 454.86908523 355.67714689 454.84103775 360.14593983 C454.83717056 362.02442616 454.83717056 362.02442616 454.83322525 363.9408617 C454.80486588 365.2215453 454.7765065 366.50222889 454.74728775 367.82172108 C454.74986588 369.11400623 454.752444 370.40629139 454.75510025 371.7377367 C454.62402765 384.43211822 454.62402765 384.43211822 449.74728775 389.77875233 C444.4941239 393.86910647 440.73830527 394.28084387 434.27642059 394.26844215 C433.03848452 394.2719705 433.03848452 394.2719705 431.77553964 394.27557012 C428.98610037 394.282273 426.19670755 394.28180151 423.40726089 394.2813921 C421.39675727 394.28468991 419.38625432 394.2884153 417.37575221 394.29253358 C411.83207554 394.30257092 406.2884097 394.30627315 400.74472523 394.30892289 C394.77321345 394.31282076 388.8017103 394.32239939 382.83020401 394.33113575 C369.08260229 394.34997892 355.33499901 394.36015797 341.58738793 394.36859643 C334.7956154 394.3728017 328.00384376 394.37802383 321.21207199 394.38328096 C297.96861064 394.40117122 274.72514903 394.41616804 251.48168182 394.42360115 C250.02225961 394.42407591 248.56283739 394.4245518 247.10341518 394.42502881 C246.01779022 394.42538338 246.01779022 394.42538338 244.91023345 394.4257451 C241.243288 394.42694632 237.57634256 394.42816176 233.90939713 394.42938709 C233.18167786 394.42962724 232.4539586 394.42986739 231.70418724 394.43011482 C208.10425779 394.43800958 184.50437856 394.46144502 160.90447104 394.49394304 C135.96030499 394.52822953 111.01616834 394.54795116 86.07197833 394.55124539 C83.33446295 394.55166294 80.59694758 394.5521425 77.85943222 394.55266857 C77.18536625 394.55279176 76.51130028 394.55291495 75.81680806 394.55304188 C64.96252724 394.55537531 54.10830469 394.57104313 43.25404465 394.59151042 C32.3468102 394.61175154 21.43964921 394.61692002 10.53239968 394.60773978 C4.62171216 394.60318225 -1.28878586 394.60516564 -7.19944763 394.62450123 C-12.60797221 394.6420418 -18.01616777 394.64120944 -23.4246954 394.62560394 C-25.38367148 394.62321399 -27.34266981 394.62762271 -29.30161175 394.63943259 C-31.96097038 394.6544749 -34.61915159 394.6449324 -37.27848053 394.6292057 C-38.04215447 394.63942791 -38.8058284 394.64965012 -39.59264398 394.66018209 C-45.05740345 394.5894669 -48.22928054 393.22239155 -52.75271225 390.13422108 C-59.53266868 382.81900493 -59.06746789 373.1091426 -58.91935349 363.5681963 C-58.34864258 349.70635395 -51.48678542 338.83936837 -44.68716049 327.10535145 C-39.60494508 318.28235122 -35.16559522 309.13892982 -30.66881943 300.00809193 C-28.40742591 295.41878328 -26.12832414 290.83837747 -23.84646225 286.25922108 C-23.24604362 285.04609493 -23.24604362 285.04609493 -22.63349533 283.80846119 C-19.86581199 278.24732082 -19.86581199 278.24732082 -18.75271225 277.13422108 C-18.65389697 275.73527527 -18.62425023 274.33137481 -18.62242699 272.92894459 C-18.61880264 272.01637079 -18.61517829 271.103797 -18.61144412 270.16356945 C-18.61251237 269.14930197 -18.61358062 268.13503448 -18.61468124 267.09003162 C-18.61044932 265.48731372 -18.61044932 265.48731372 -18.60613191 263.85221767 C-18.59774317 260.24178455 -18.596444 256.63138192 -18.59499741 253.02093983 C-18.59033221 250.44429404 -18.58518914 247.86764908 -18.57960129 245.29100513 C-18.56805723 239.72635537 -18.55982231 234.16170865 -18.55348206 228.59705067 C-18.54316755 219.79838526 -18.52260544 210.99975779 -18.5003624 202.20111561 C-18.49288185 199.19196046 -18.48546818 196.18280515 -18.47807503 193.17364979 C-18.47622446 192.42151384 -18.4743739 191.66937789 -18.47246725 190.89444995 C-18.45152447 182.32545158 -18.43270548 173.75644899 -18.41482162 165.18744373 C-18.41318344 164.40383834 -18.41154526 163.62023295 -18.40985744 162.81288195 C-18.38360086 150.12847362 -18.36494326 137.44406238 -18.34822972 124.75963843 C-18.33079536 111.73839624 -18.30193261 98.71721105 -18.26334035 85.6960144 C-18.23996267 77.66466166 -18.22594778 69.63340188 -18.22401272 61.60201484 C-18.22164963 55.44044177 -18.20375458 49.27900269 -18.18014336 43.11747646 C-18.1729493 40.59277561 -18.1708499 38.06805427 -18.17424583 35.54334545 C-18.17814457 32.09345696 -18.16367179 28.64410745 -18.14471054 25.19427967 C-18.15300508 23.69964711 -18.15300508 23.69964711 -18.16146719 22.17481995 C-18.09346863 14.99456758 -17.52624127 7.90775009 -12.25271225 2.63422108 C-8.04059374 0.10694997 -4.8353298 0.00697137 0 0 Z " fill="#35E4E4" transform="translate(57.75271224975586,58.86577892303467)"/>
<path d="M0 0 C0.69359757 -0.00235223 1.38719514 -0.00470446 2.10181081 -0.00712797 C4.44326707 -0.01382433 6.78466792 -0.01335956 9.12613297 -0.01294994 C10.81490229 -0.01624817 12.50367083 -0.01997364 14.19243836 -0.02409142 C18.84679247 -0.03412416 23.50113368 -0.03783026 28.15549707 -0.04048073 C33.16994559 -0.04437997 38.18438385 -0.05395851 43.19882584 -0.0626936 C55.31487903 -0.08246796 67.43093308 -0.09252509 79.54699838 -0.10142139 C85.24932369 -0.10580237 90.95164806 -0.11116964 96.65397263 -0.11641026 C115.60367388 -0.1334229 134.55337455 -0.14791808 153.50308228 -0.155159 C158.42204921 -0.15706896 163.34101614 -0.15898928 168.25998306 -0.16094494 C169.48260244 -0.16142868 170.70522182 -0.16191242 171.96489027 -0.16241082 C191.77990306 -0.17071488 211.59485554 -0.196058 231.40984198 -0.22852562 C251.7422851 -0.26157019 272.07469755 -0.27960537 292.40716767 -0.28280324 C303.82766473 -0.28497066 315.24807384 -0.29375335 326.66854477 -0.31926441 C336.39270318 -0.3409358 346.11675228 -0.34903937 355.8409321 -0.33929763 C360.80380863 -0.3347427 365.76645947 -0.33670836 370.72930527 -0.35605907 C375.27185255 -0.37361833 379.81400828 -0.37275212 384.35655931 -0.35716178 C386.0005988 -0.35477468 387.64466489 -0.3591661 389.2886636 -0.37099043 C391.52332245 -0.38606854 393.75658655 -0.37646693 395.99121094 -0.36076355 C397.23240936 -0.36174036 398.47360778 -0.36271717 399.75241828 -0.36372358 C404.93698681 0.3749673 408.85948217 2.33007382 412.12228775 6.57172108 C413.89287421 10.60472358 414.37339264 14.42601855 414.35801983 18.80375576 C414.35732728 19.71812676 414.35663474 20.63249776 414.35592121 21.57457697 C414.35007812 22.57037189 414.34423503 23.56616681 414.33821487 24.59213734 C414.33609719 25.65697798 414.33397951 26.72181863 414.33179766 27.81892717 C414.32372851 31.39361662 414.30869115 34.96824495 414.29391861 38.54291248 C414.28712891 41.10392077 414.28091744 43.66493066 414.27524185 46.22594166 C414.26599754 50.32131864 414.25648401 54.41669103 414.24466407 58.51206136 C414.21558884 68.68051122 414.20411075 78.84887965 414.20323563 89.01736927 C414.20309506 90.12203417 414.20309506 90.12203417 414.20295166 91.24901552 C414.20222972 97.3145174 414.20222639 103.38001924 414.20245175 109.44552115 C414.20261294 114.90816096 414.20210123 120.37080019 414.20065689 125.83343983 C414.2004589 126.61216011 414.20026091 127.39088039 414.20005692 128.19319825 C414.19586844 140.78019795 414.15937423 153.36691684 414.11170071 165.9538178 C414.06349864 178.90071649 414.0537122 191.8472575 414.07804018 204.79422414 C414.09176265 212.76484158 414.07581699 220.73423381 414.02057201 228.70467661 C413.98123318 234.83450986 413.99522931 240.96321549 414.02810287 247.0930624 C414.03333503 249.59102454 414.02177604 252.08909307 413.99131584 254.58687496 C413.81408975 270.08367565 415.57868969 281.12030786 424.06585771 294.25667012 C425.75135521 296.93529462 427.12175566 299.70978157 428.50632095 302.55463123 C429.20172737 303.9503989 429.20172737 303.9503989 429.9111824 305.3743639 C430.36885498 306.29800739 430.82652756 307.22165089 431.298069 308.17328358 C432.05811485 309.69905521 432.05811485 309.69905521 432.83351517 311.25565052 C434.41096862 314.42250263 435.98573791 317.59067603 437.55978775 320.75922108 C439.65766386 324.9817669 441.75831522 329.20291585 443.860569 333.42328358 C444.32836273 334.36716938 444.79615646 335.31105518 445.27812576 336.28354359 C447.41252837 340.56809182 449.60099985 344.75001402 452.0468483 348.86542225 C454.20263689 352.7104186 454.86908523 355.67714689 454.84103775 360.14593983 C454.83717056 362.02442616 454.83717056 362.02442616 454.83322525 363.9408617 C454.80486588 365.2215453 454.7765065 366.50222889 454.74728775 367.82172108 C454.74986588 369.11400623 454.752444 370.40629139 454.75510025 371.7377367 C454.62402765 384.43211822 454.62402765 384.43211822 449.74728775 389.77875233 C444.4941239 393.86910647 440.73830527 394.28084387 434.27642059 394.26844215 C433.03848452 394.2719705 433.03848452 394.2719705 431.77553964 394.27557012 C428.98610037 394.282273 426.19670755 394.28180151 423.40726089 394.2813921 C421.39675727 394.28468991 419.38625432 394.2884153 417.37575221 394.29253358 C411.83207554 394.30257092 406.2884097 394.30627315 400.74472523 394.30892289 C394.77321345 394.31282076 388.8017103 394.32239939 382.83020401 394.33113575 C369.08260229 394.34997892 355.33499901 394.36015797 341.58738793 394.36859643 C334.7956154 394.3728017 328.00384376 394.37802383 321.21207199 394.38328096 C297.96861064 394.40117122 274.72514903 394.41616804 251.48168182 394.42360115 C250.02225961 394.42407591 248.56283739 394.4245518 247.10341518 394.42502881 C246.01779022 394.42538338 246.01779022 394.42538338 244.91023345 394.4257451 C241.243288 394.42694632 237.57634256 394.42816176 233.90939713 394.42938709 C233.18167786 394.42962724 232.4539586 394.42986739 231.70418724 394.43011482 C208.10425779 394.43800958 184.50437856 394.46144502 160.90447104 394.49394304 C135.96030499 394.52822953 111.01616834 394.54795116 86.07197833 394.55124539 C83.33446295 394.55166294 80.59694758 394.5521425 77.85943222 394.55266857 C77.18536625 394.55279176 76.51130028 394.55291495 75.81680806 394.55304188 C64.96252724 394.55537531 54.10830469 394.57104313 43.25404465 394.59151042 C32.3468102 394.61175154 21.43964921 394.61692002 10.53239968 394.60773978 C4.62171216 394.60318225 -1.28878586 394.60516564 -7.19944763 394.62450123 C-12.60797221 394.6420418 -18.01616777 394.64120944 -23.4246954 394.62560394 C-25.38367148 394.62321399 -27.34266981 394.62762271 -29.30161175 394.63943259 C-31.96097038 394.6544749 -34.61915159 394.6449324 -37.27848053 394.6292057 C-38.04215447 394.63942791 -38.8058284 394.64965012 -39.59264398 394.66018209 C-45.05740345 394.5894669 -48.22928054 393.22239155 -52.75271225 390.13422108 C-59.53266868 382.81900493 -59.06746789 373.1091426 -58.91935349 363.5681963 C-58.34864258 349.70635395 -51.48678542 338.83936837 -44.68716049 327.10535145 C-39.60494508 318.28235122 -35.16559522 309.13892982 -30.66881943 300.00809193 C-28.40742591 295.41878328 -26.12832414 290.83837747 -23.84646225 286.25922108 C-23.24604362 285.04609493 -23.24604362 285.04609493 -22.63349533 283.80846119 C-19.86581199 278.24732082 -19.86581199 278.24732082 -18.75271225 277.13422108 C-18.65389697 275.73527527 -18.62425023 274.33137481 -18.62242699 272.92894459 C-18.61880264 272.01637079 -18.61517829 271.103797 -18.61144412 270.16356945 C-18.61251237 269.14930197 -18.61358062 268.13503448 -18.61468124 267.09003162 C-18.61044932 265.48731372 -18.61044932 265.48731372 -18.60613191 263.85221767 C-18.59774317 260.24178455 -18.596444 256.63138192 -18.59499741 253.02093983 C-18.59033221 250.44429404 -18.58518914 247.86764908 -18.57960129 245.29100513 C-18.56805723 239.72635537 -18.55982231 234.16170865 -18.55348206 228.59705067 C-18.54316755 219.79838526 -18.52260544 210.99975779 -18.5003624 202.20111561 C-18.49288185 199.19196046 -18.48546818 196.18280515 -18.47807503 193.17364979 C-18.47622446 192.42151384 -18.4743739 191.66937789 -18.47246725 190.89444995 C-18.45152447 182.32545158 -18.43270548 173.75644899 -18.41482162 165.18744373 C-18.41318344 164.40383834 -18.41154526 163.62023295 -18.40985744 162.81288195 C-18.38360086 150.12847362 -18.36494326 137.44406238 -18.34822972 124.75963843 C-18.33079536 111.73839624 -18.30193261 98.71721105 -18.26334035 85.6960144 C-18.23996267 77.66466166 -18.22594778 69.63340188 -18.22401272 61.60201484 C-18.22164963 55.44044177 -18.20375458 49.27900269 -18.18014336 43.11747646 C-18.1729493 40.59277561 -18.1708499 38.06805427 -18.17424583 35.54334545 C-18.17814457 32.09345696 -18.16367179 28.64410745 -18.14471054 25.19427967 C-18.15300508 23.69964711 -18.15300508 23.69964711 -18.16146719 22.17481995 C-18.09346863 14.99456758 -17.52624127 7.90775009 -12.25271225 2.63422108 C-8.04059374 0.10694997 -4.8353298 0.00697137 0 0 Z M-1.75271225 15.13422108 C-1.75271225 98.95422108 -1.75271225 182.77422108 -1.75271225 269.13422108 C130.24728775 269.13422108 262.24728775 269.13422108 398.24728775 269.13422108 C398.24728775 185.31422108 398.24728775 101.49422108 398.24728775 15.13422108 C266.24728775 15.13422108 134.24728775 15.13422108 -1.75271225 15.13422108 Z " fill="#010101" transform="translate(57.75271224975586,58.86577892303467)"/>
<path d="M0 0 C1.23295191 0.00037972 2.46590382 0.00075944 3.73621792 0.00115067 C4.76616826 -0.0005801 4.76616826 -0.0005801 5.81692567 -0.00234583 C8.14667479 -0.00501912 10.47635652 -0.00048453 12.80610222 0.00394398 C14.48163439 0.00350842 16.15716649 0.0026338 17.83269823 0.00135481 C22.45948646 -0.0008932 27.08625177 0.0031353 31.71303707 0.00813287 C36.69397946 0.01243282 41.67492046 0.01099128 46.65586418 0.0102306 C55.29317671 0.00970507 63.93048172 0.01285485 72.56779236 0.01846844 C85.05604728 0.02657958 97.54429854 0.02919826 110.03255581 0.03045643 C130.29166299 0.03264756 150.55076614 0.03930929 170.80987114 0.04875904 C190.49509229 0.05793159 210.18031235 0.06501319 229.8655352 0.06926686 C231.68422142 0.06966094 231.68422142 0.06966094 233.53964878 0.07006299 C239.62191107 0.07136798 245.70417336 0.0726317 251.78643566 0.07387489 C302.28179909 0.0842494 352.77715816 0.10186936 403.27251762 0.1241985 C404.88115595 3.17523454 406.48891577 6.22673269 408.09652275 9.27831227 C408.54988156 10.13815283 409.00324037 10.9979934 409.47033733 11.88388973 C412.46680781 17.57316599 415.41590936 23.28121522 418.26470512 29.0460735 C418.66279381 29.84603749 419.06088249 30.64600147 419.47103447 31.4702068 C420.69859647 33.93718342 421.92343194 36.40549535 423.14751762 38.8741985 C424.78835376 42.18268599 426.43198872 45.48976242 428.07720512 48.7960735 C428.44079124 49.53154408 428.80437736 50.26701466 429.17898124 51.02477223 C430.86938526 54.42163413 432.6122186 57.74776411 434.53472465 61.01970631 C436.27251762 64.1241985 436.27251762 64.1241985 436.27251762 66.1241985 C381.82251762 66.1241985 327.37251762 66.1241985 271.27251762 66.1241985 C268.96251762 57.5441985 266.65251762 48.9641985 264.27251762 40.1241985 C261.55496875 31.92121656 261.55496875 31.92121656 255.27251762 27.1241985 C251.70157461 26.42903463 248.21823736 26.44040401 244.58892387 26.47722584 C243.52479271 26.46846424 242.46066154 26.45970265 241.36428398 26.45067555 C237.85411119 26.42870674 234.34520275 26.44322663 230.83501762 26.460136 C228.39173717 26.45676717 225.94845835 26.451914 223.50518364 26.44564015 C218.38742674 26.43827217 213.27010653 26.44897269 208.15240043 26.47234303 C201.59494337 26.50082982 195.03850953 26.48442558 188.48109001 26.45448071 C183.43670526 26.43640627 178.39256278 26.44216665 173.3481707 26.45511967 C170.9304652 26.45845323 168.51273765 26.45436842 166.0950579 26.4427219 C162.71481704 26.43001173 159.33622922 26.44939541 155.95611137 26.47722584 C154.95852806 26.46710469 153.96094475 26.45698353 152.93313164 26.44655567 C148.6933966 26.5111696 145.2936382 26.60454417 141.79229301 29.16463429 C134.19059661 38.09309223 131.64143595 57.32535899 129.27251762 66.1241985 C74.82251762 66.1241985 20.37251762 66.1241985 -35.72748238 66.1241985 C-34.43007015 62.23196181 -33.41222488 59.25753106 -31.53998238 55.772636 C-31.09694771 54.93812916 -30.65391304 54.10362232 -30.19745308 53.2438274 C-29.71236275 52.33809986 -29.22727242 51.43237232 -28.72748238 50.4991985 C-22.13853699 38.05561475 -15.86590657 25.46084693 -9.60834175 12.84831959 C-9.22606926 12.07961537 -8.84379677 11.31091114 -8.44994026 10.51891285 C-7.72436554 9.05971821 -7.00050921 7.59966751 -6.27858406 6.13866383 C-3.29951751 0.15024666 -3.29951751 0.15024666 0 0 Z " fill="#9DBDCB" transform="translate(55.72748237848282,342.8758015036583)"/>
<path d="M0 0 C132 0 264 0 400 0 C400 83.82 400 167.64 400 254 C268 254 136 254 0 254 C0 170.18 0 86.36 0 0 Z M17.14826965 21.73791504 C15.42437403 25.13398002 15.59093886 28.47170459 15.62768555 32.19335938 C15.62403488 33.01657181 15.62038422 33.83978424 15.61662292 34.6879425 C15.6085227 37.40675542 15.62212306 40.12497135 15.63671875 42.84375 C15.63723742 44.73417155 15.63671945 46.62459364 15.63520813 48.51501465 C15.63529783 52.47607479 15.64572273 56.43693132 15.66381836 60.39794922 C15.68650538 65.47567033 15.68704936 70.5530939 15.68030071 75.63085175 C15.67695945 79.53418625 15.6835938 83.4374529 15.69342995 87.34077454 C15.69727952 89.21307521 15.69843117 91.08538342 15.6968441 92.95768738 C15.6964733 95.57415144 15.70909778 98.19023388 15.7253418 100.80664062 C15.72286438 101.58078812 15.72038696 102.35493561 15.71783447 103.15254211 C15.68721014 108.44390792 15.68721014 108.44390792 18 113 C19.65 113.66 21.3 114.32 23 115 C23 123.25 23 131.5 23 140 C21.02 140.495 21.02 140.495 19 141 C17.1319285 141.98678613 17.1319285 141.98678613 16 144 C15.70386696 146.72277289 15.59015954 149.21694388 15.61181641 151.94042969 C15.60655945 152.74892365 15.60130249 153.5574176 15.59588623 154.39041138 C15.58266514 157.06776156 15.59143492 159.74451856 15.6015625 162.421875 C15.59954158 164.28411981 15.59662999 166.14636385 15.59286499 168.00860596 C15.58843813 171.91597003 15.59488139 175.82312855 15.60888672 179.73046875 C15.62593139 184.72841245 15.61616974 189.72587117 15.59816933 194.72379684 C15.58730071 198.57236344 15.59079276 202.42081616 15.5985527 206.26938629 C15.60054867 208.11130074 15.59811669 209.95322565 15.59111404 211.79512787 C15.58345419 214.37769194 15.59516886 216.95948517 15.61181641 219.54199219 C15.60574371 220.29757416 15.59967102 221.05315613 15.59341431 221.83163452 C15.65391666 226.92442053 16.54372189 230.50391082 19 235 C22.22641528 238.11695438 24.59405921 238.37607708 29.00677395 238.38031673 C30.24477668 238.38875668 31.48277942 238.39719662 32.75829738 238.40589231 C34.13439325 238.40009689 35.51048794 238.39401585 36.88658142 238.38768005 C38.34665368 238.39185156 39.8067227 238.39732807 41.26678568 238.40399987 C45.28431666 238.41849737 49.30164324 238.4141964 53.31918561 238.40683305 C57.64987786 238.40211429 61.98052506 238.41459975 66.311203 238.42485046 C74.79739909 238.44206919 83.28352124 238.44287212 91.76973026 238.43763756 C98.66557675 238.43360036 105.56140134 238.43503405 112.45724678 238.44038582 C113.43773909 238.44113424 114.41823139 238.44188266 115.42843558 238.44265376 C117.4201388 238.4441852 119.41184201 238.44572355 121.40354521 238.44726873 C140.09221169 238.46100488 158.78083633 238.45554825 177.46950186 238.44408352 C194.57634034 238.43414979 211.68307069 238.44709225 228.78989249 238.47101771 C246.34479718 238.49538535 263.89965146 238.50502235 281.45457274 238.49836498 C291.3144985 238.49486758 301.17434107 238.49713911 311.03425407 238.51461601 C319.42776826 238.52930882 327.82114068 238.53001181 336.21465199 238.5125451 C340.49882677 238.50400857 344.78274797 238.50194989 349.06690979 238.51719666 C352.98699109 238.53097523 356.90659994 238.52636949 360.82665343 238.50695742 C362.24653126 238.50317597 363.66644632 238.50618076 365.08629119 238.51656907 C367.01328529 238.52966797 368.94040659 238.5158153 370.86738491 238.50057125 C372.47433654 238.50041025 372.47433654 238.50041025 374.11375183 238.50024599 C378.28490697 237.77729928 380.79057401 235.61853722 383.29434204 232.26782227 C384.3772685 228.78754589 384.29470318 225.32457552 384.29052734 221.71484375 C384.29724457 220.88187775 384.30396179 220.04891174 384.31088257 219.19070435 C384.32986787 216.43957544 384.33378667 213.68869031 384.3359375 210.9375 C384.34236381 209.02465718 384.34909204 207.11181535 384.35610962 205.19897461 C384.36808281 201.19089477 384.37179027 197.18290115 384.37060547 193.17480469 C384.37040199 188.03640899 384.39773358 182.89856458 384.43214989 177.76029968 C384.45437203 173.81064305 384.45844449 169.86112023 384.45738602 165.91140747 C384.45974791 164.01675512 384.46860444 162.1220994 384.48405075 160.22750854 C384.50362121 157.57966274 384.49790892 154.93302095 384.48583984 152.28515625 C384.49707886 151.50165802 384.50831787 150.71815979 384.51989746 149.91091919 C384.47895222 146.38043705 384.26927639 144.36790004 382.15713501 141.48217773 C380.02411405 139.7168462 380.02411405 139.7168462 377 140 C377.02274586 135.89459549 377.09997934 131.79199441 377.1875 127.6875 C377.19620117 125.93663086 377.19620117 125.93663086 377.20507812 124.15039062 C377.24858398 122.47299805 377.24858398 122.47299805 377.29296875 120.76171875 C377.3086792 119.73006592 377.32438965 118.69841309 377.34057617 117.63549805 C378 115 378 115 380.48168945 113.32739258 C381.31273193 112.88935303 382.14377441 112.45131348 383 112 C384.23824326 108.28527023 384.17158504 104.82241851 384.19287109 100.9519043 C384.20104858 100.13205048 384.20922607 99.31219666 384.21765137 98.46749878 C384.2424733 95.7530795 384.2590125 93.03871238 384.2734375 90.32421875 C384.27876118 89.39669107 384.28408485 88.4691634 384.28956985 87.51352882 C384.31628656 82.60481213 384.33566685 77.69612075 384.35009766 72.78735352 C384.36344262 68.72592679 384.39130748 64.66500179 384.43212891 60.60375977 C384.48143405 55.69840658 384.50621594 50.79350888 384.51332474 45.88791847 C384.52003822 44.02000774 384.53526286 42.15210721 384.55921555 40.284338 C384.59085846 37.66778008 384.59090567 35.05297856 384.58349609 32.4362793 C384.6081041 31.28348732 384.6081041 31.28348732 384.63320923 30.10740662 C384.58834004 26.22855732 384.09144166 23.6157037 381.71353149 20.59773254 C377.51125061 16.57478244 374.85517991 15.75044681 369.05848885 15.74273109 C367.22331017 15.73305776 367.22331017 15.73305776 365.35105717 15.723189 C363.99137209 15.72613135 362.63168742 15.72926679 361.27200317 15.73257446 C359.82914456 15.72883886 358.38628797 15.7242377 356.9434346 15.71884382 C352.9734817 15.70658726 349.0036129 15.7068774 345.03364539 15.70923257 C340.75406575 15.70964006 336.47451331 15.69860806 332.19494629 15.68911743 C323.80869508 15.67249211 315.42247198 15.6670072 307.03620566 15.66589268 C300.22093962 15.66494296 293.40568287 15.66083653 286.59041977 15.65449142 C267.27630669 15.63687514 247.96221584 15.6276532 228.64809467 15.62915237 C227.08567892 15.62927224 227.08567892 15.62927224 225.49169922 15.62939453 C224.44881992 15.62947629 223.40594062 15.62955805 222.33145891 15.62964229 C205.42576165 15.63045539 188.52015344 15.61131271 171.61448194 15.5831178 C154.26410957 15.55440908 136.91378067 15.54057638 119.56338394 15.54230535 C109.81911515 15.54296993 100.07493972 15.53744791 90.33069229 15.51594925 C82.03492957 15.49776394 73.73930254 15.49336828 65.44352855 15.5069681 C61.20985535 15.51351108 56.97644267 15.51356722 52.74279404 15.4962616 C48.8676941 15.4805843 44.9930624 15.48333927 41.11797427 15.50082986 C39.71557169 15.5039116 38.31313462 15.50022328 36.9107727 15.48910971 C28.12983725 15.42412639 23.57603792 15.70522504 17.14826965 21.73791504 Z " fill="#DEE9EE" transform="translate(56,74)"/>
<path d="M0 0 C132 0 264 0 400 0 C400 83.82 400 167.64 400 254 C268 254 136 254 0 254 C0 251.69 0 249.38 0 247 C0.73657481 246.99940291 1.47314962 246.99880582 2.23204488 246.99819064 C45.86350293 246.96231598 89.49489168 246.90570675 133.12628568 246.82207905 C138.36226635 246.81206129 143.59824732 246.80221721 148.83422852 246.79248047 C149.87664152 246.7905391 150.91905452 246.78859772 151.9930558 246.78659752 C168.88347515 246.75555549 185.7738809 246.73859072 202.66432341 246.72680578 C219.98860653 246.71440563 237.31281817 246.68692995 254.63705617 246.64538693 C265.33164245 246.62021897 276.02611021 246.60688512 286.72072653 246.60857043 C294.04912379 246.60860013 301.3774001 246.5940192 308.70575025 246.56783572 C312.93722705 246.55315207 317.16845581 246.54501891 321.39995384 246.55419731 C325.27210824 246.5624544 329.1437632 246.5524124 333.01584331 246.52766338 C334.41833457 246.52195647 335.82087281 246.52303107 337.22335019 246.53148755 C339.12698705 246.54198449 341.03071574 246.52558803 342.93429852 246.50780869 C344.52171936 246.50553036 344.52171936 246.50553036 346.1412093 246.50320601 C349.74457569 245.86893935 351.41788311 244.54943919 354 242 C354.33 241.01 354.66 240.02 355 239 C246.76 239 138.52 239 27 239 C27 238.67 27 238.34 27 238 C27.73869078 237.99978263 28.47738156 237.99956526 29.2384569 237.99934131 C72.99517614 237.98583274 116.75180584 237.9463874 160.50846795 237.87314438 C165.75946987 237.86437737 171.01047212 237.85582761 176.26147461 237.84741211 C177.30687823 237.84573305 178.35228185 237.84405398 179.42936436 237.84232404 C196.36829084 237.81563618 213.30718348 237.80655768 230.24612882 237.80395857 C247.62014105 237.8009018 264.99405525 237.77898715 282.36802322 237.73947543 C293.09334705 237.71568111 303.81847535 237.70669034 314.54382197 237.71648689 C321.8932632 237.72179246 329.24252882 237.70882181 336.59192004 237.6813371 C340.83559988 237.66601106 345.07888686 237.6588795 349.32257843 237.67340279 C353.20592716 237.68651539 357.08851309 237.67673812 360.97177551 237.64856227 C362.37830451 237.64243167 363.78490072 237.64478466 365.19139536 237.65637074 C373.36825174 238.10781427 373.36825174 238.10781427 380.30553913 234.58504772 C383.15396707 230.23952267 383.15395728 227.01153701 383.16113281 221.92602539 C383.16609772 221.09174515 383.17106262 220.2574649 383.17617798 219.39790344 C383.19081338 216.63114607 383.19760334 213.86444601 383.203125 211.09765625 C383.20887464 209.17956032 383.21463239 207.26146441 383.22039795 205.34336853 C383.23091139 201.31916027 383.23675204 197.29497202 383.24023438 193.27075195 C383.24572455 188.10765032 383.26976228 182.94481168 383.29820633 177.78179264 C383.3168039 173.81932292 383.32203673 169.85691696 383.32357025 165.89440727 C383.32660305 163.99055987 383.3346526 162.08671374 383.34775543 160.18290901 C383.36475841 157.52285697 383.36295009 154.86345306 383.35644531 152.20336914 C383.3656601 151.41313354 383.37487488 150.62289795 383.3843689 149.80871582 C383.38258043 145.6898787 383.38258043 145.6898787 381.66522217 142.04978943 C379.8654035 140.8226799 379.8654035 140.8226799 377 140 C376.85510766 135.89620302 376.76606458 131.79306033 376.6875 127.6875 C376.64560547 126.52025391 376.60371094 125.35300781 376.56054688 124.15039062 C376.54443359 123.03212891 376.52832031 121.91386719 376.51171875 120.76171875 C376.47244263 119.2142395 376.47244263 119.2142395 376.43237305 117.63549805 C377 115 377 115 379.46801758 113.32739258 C380.30357178 112.88935303 381.13912598 112.45131348 382 112 C383.24038791 108.27883627 383.16357153 104.81282376 383.17700195 100.93603516 C383.18357315 100.11457504 383.19014435 99.29311493 383.19691467 98.44676208 C383.21663064 95.72752796 383.22830526 93.00834897 383.23828125 90.2890625 C383.24235678 89.36028667 383.2464323 88.43151085 383.25063133 87.4745903 C383.27148285 82.56053642 383.28578965 77.64651041 383.29516602 72.73242188 C383.3062404 67.65578125 383.34065474 62.57957774 383.38033772 57.50309181 C383.40647007 53.59973328 383.41485474 49.69647955 383.41844749 45.79304123 C383.42332067 43.92153337 383.4349554 42.05003041 383.45348549 40.17860794 C383.47780969 37.55963595 383.47692466 34.94180406 383.4699707 32.32275391 C383.48278076 31.55063065 383.49559082 30.77850739 383.50878906 29.98298645 C383.46079213 25.02182959 382.53870425 22.48392443 379 19 C376.08461696 17.07853069 373.69180256 16.71891548 370.234375 16.5859375 C368.90019531 16.52792969 368.90019531 16.52792969 367.5390625 16.46875 C366.61867188 16.4378125 365.69828125 16.406875 364.75 16.375 C363.81414062 16.33632812 362.87828125 16.29765625 361.9140625 16.2578125 C359.60969204 16.16375656 357.3048734 16.08079814 355 16 C355 11.05 355 6.1 355 1 C237.85 1 120.7 1 0 1 C0 0.67 0 0.34 0 0 Z " fill="#BCCBD2" transform="translate(56,74)"/>
<path d="M0 0 C19.58599273 19.58599273 4 55.30122345 4 83 C115.54 83 227.08 83 342 83 C342 56.93 342 30.86 342 4 C346 0 346 0 349.5 -0.5 C353 0 353 0 355.18640137 1.51541138 C357.71499728 4.97952991 357.56041183 8.12523942 357.51757812 12.25341797 C357.52809204 13.4980481 357.52809204 13.4980481 357.53881836 14.76782227 C357.5564169 17.50961828 357.54476714 20.25038104 357.53125 22.9921875 C357.5339449 24.90024005 357.5378273 26.80829126 357.54284668 28.71633911 C357.54874467 32.71613637 357.54017099 36.71557632 357.52148438 40.71533203 C357.49872557 45.83565757 357.51179652 50.95514302 357.53577423 56.07543755 C357.55025046 60.01663504 357.54561731 63.95763448 357.53526306 67.89883804 C357.53259921 69.78623683 357.53585349 71.67365373 357.54518127 73.56103134 C357.55537349 76.20376709 357.53980769 78.84515709 357.51757812 81.48779297 C357.52567505 82.26410065 357.53377197 83.04040833 357.54211426 83.84024048 C357.46137919 89.0374164 356.31326171 92.01362351 353 96 C349.52836675 98.31442217 348.2119584 98.25188383 344.11627388 98.25726891 C342.88026219 98.2637178 341.64425051 98.27016669 340.37078393 98.276811 C338.99174657 98.27386846 337.61270962 98.270733 336.2336731 98.26742554 C334.77446567 98.27115998 333.31526024 98.27576068 331.856058 98.28115618 C327.83630917 98.29342705 323.81664331 98.29312093 319.79688001 98.29076743 C315.46549515 98.29036029 311.13413727 98.30138852 306.80276489 98.31088257 C298.31310564 98.32751585 289.82347415 98.33299316 281.33379997 98.33410732 C274.43507277 98.33505668 267.53635476 98.33916135 260.63763046 98.34550858 C241.09119351 98.36312722 221.54477854 98.37234646 201.99833359 98.37084763 C200.94394698 98.37076772 199.88956037 98.3706878 198.80322266 98.37060547 C197.74755308 98.37052371 196.69188351 98.37044195 195.60422395 98.37035771 C178.49085917 98.36954459 161.37758235 98.38868698 144.26424302 98.4168822 C126.70485492 98.44558472 109.14550976 98.45942395 91.5860976 98.45769465 C81.72279769 98.45702984 71.85959001 98.46256171 61.99631119 98.48405075 C53.59912022 98.50222795 45.20206328 98.50663846 36.8048612 98.4930319 C32.5186631 98.48648472 28.23272236 98.48644776 23.94654846 98.5037384 C20.02458534 98.51939739 16.10308519 98.51667969 12.18113385 98.49917014 C10.76054975 98.49608432 9.3399317 98.49979186 7.91938759 98.51089029 C5.9914409 98.52495814 4.06335349 98.51206416 2.1354084 98.49777794 C1.06356525 98.49821267 -0.00827791 98.49864741 -1.11260116 98.49909532 C-4.73174011 97.87351658 -6.39187394 96.53934171 -9 94 C-11.21288079 89.33355704 -11.29660178 84.74880594 -11.29052734 79.67138672 C-11.29724457 78.8576358 -11.30396179 78.04388489 -11.31088257 77.20547485 C-11.32979793 74.53014945 -11.33378265 71.85507549 -11.3359375 69.1796875 C-11.34236701 67.31454364 -11.34909548 65.44940079 -11.35610962 63.58425903 C-11.36806407 59.6822882 -11.37179204 55.78040581 -11.37060547 51.87841797 C-11.37040171 46.87683658 -11.39777025 41.87581978 -11.43214989 36.87437248 C-11.45436888 33.02594387 -11.45844465 29.17765261 -11.45738602 25.32916641 C-11.45974697 23.48475309 -11.46859822 21.64033627 -11.48405075 19.79598618 C-11.5036216 17.22019282 -11.49790971 14.64563699 -11.48583984 12.06982422 C-11.49707886 11.30816956 -11.50831787 10.54651489 -11.51989746 9.76177979 C-11.47871232 6.30741925 -11.25496601 4.34806513 -9.18838501 1.52688599 C-5.98058803 -0.71126691 -3.81478906 -0.54496987 0 0 Z " fill="#000303" transform="translate(83,214)"/>
<path d="M0 0 C1.22345245 -0.00644889 2.4469049 -0.01289778 3.70743167 -0.0195421 C5.06711676 -0.01659975 6.42680143 -0.0134643 7.78648567 -0.01015663 C9.22934429 -0.01389223 10.67220088 -0.01849339 12.11505425 -0.02388728 C16.08500715 -0.03614383 20.05487594 -0.0358537 24.02484345 -0.03349853 C28.3044231 -0.03309103 32.58397553 -0.04412303 36.86354256 -0.05361366 C45.24979377 -0.07023898 53.63601687 -0.07572389 62.02228318 -0.07683842 C68.83754922 -0.07778813 75.65280597 -0.08189457 82.46806908 -0.08823967 C101.78218216 -0.10585595 121.096273 -0.11507789 140.41039418 -0.11357872 C141.45200468 -0.11349881 142.49361517 -0.1134189 143.56678963 -0.11333656 C144.60966893 -0.1132548 145.65254823 -0.11317304 146.72702993 -0.1130888 C163.6327272 -0.1122757 180.53833541 -0.13141839 197.4440069 -0.1596133 C214.79437927 -0.18832202 232.14470818 -0.20215471 249.49510491 -0.20042574 C259.2393737 -0.19976116 268.98354913 -0.20528318 278.72779655 -0.22678185 C287.02355927 -0.24496716 295.31918631 -0.24936282 303.6149603 -0.235763 C307.8486335 -0.22922001 312.08204618 -0.22916387 316.31569481 -0.2464695 C320.19079474 -0.2621468 324.06542644 -0.25939182 327.94051458 -0.24190123 C329.34291716 -0.23881949 330.74535422 -0.24250782 332.14771615 -0.25362138 C340.92865159 -0.31860471 345.48245092 -0.03750606 351.91021919 5.99518394 C353.63411481 9.39124893 353.46754998 12.7289735 353.4308033 16.45062828 C353.43445396 17.27384071 353.43810463 18.09705315 353.44186592 18.94521141 C353.44996615 21.66402433 353.43636579 24.38224026 353.4217701 27.10101891 C353.42125142 28.99144045 353.4217694 30.88186254 353.42328072 32.77228355 C353.42319102 36.7333437 353.41276611 40.69420022 353.39467049 44.65521812 C353.37198347 49.73293923 353.37143949 54.81036281 353.37818813 59.88812065 C353.38152939 63.79145515 353.37489505 67.69472181 353.3650589 71.59804344 C353.36120933 73.47034411 353.36005768 75.34265233 353.36164474 77.21495628 C353.36201554 79.83142035 353.34939106 82.44750279 353.33314705 85.06390953 C353.33686317 86.22513077 353.33686317 86.22513077 353.34065437 87.40981102 C353.27379078 94.15695075 353.27379078 94.15695075 351.05848885 97.25726891 C347.96675133 98.80313766 345.46419332 98.55086412 342.05848885 98.25726891 C340.73848885 96.93726891 339.41848885 95.61726891 338.05848885 94.25726891 C338.05848885 68.18726891 338.05848885 42.11726891 338.05848885 15.25726891 C226.51848885 15.25726891 114.97848885 15.25726891 0.05848885 15.25726891 C0.05848885 41.32726891 0.05848885 67.39726891 0.05848885 94.25726891 C-3.94151115 98.25726891 -3.94151115 98.25726891 -7.50401115 98.63226891 C-10.94151115 98.25726891 -10.94151115 98.25726891 -13.94151115 96.25726891 C-15.17975441 92.54253913 -15.11309619 89.07968741 -15.13438225 85.2091732 C-15.14255974 84.38931938 -15.15073723 83.56946556 -15.15916252 82.72476768 C-15.18398445 80.01034841 -15.20052366 77.29598128 -15.21494865 74.58148766 C-15.22027233 73.65395998 -15.22559601 72.7264323 -15.23108101 71.77079773 C-15.25779771 66.86208104 -15.277178 61.95338966 -15.29160881 57.04462242 C-15.30495378 52.98319569 -15.33281863 48.9222707 -15.37364006 44.86102867 C-15.4229452 39.95567549 -15.4477271 35.05077779 -15.45483589 30.14518738 C-15.46154938 28.27727665 -15.47677402 26.40937612 -15.5007267 24.5416069 C-15.53236961 21.92504899 -15.53241683 19.31024746 -15.52500725 16.6935482 C-15.54141258 15.92502022 -15.55781792 15.15649223 -15.57472038 14.36467552 C-15.52985119 10.48582622 -15.03295281 7.8729726 -12.65504265 4.85500145 C-8.45276177 0.83205135 -5.79669107 0.00771572 0 0 Z " fill="#020202" transform="translate(86.9415111541748,89.74273109436035)"/>
<path d="M0 0 C111.54 0 223.08 0 338 0 C338.33 26.07 338.66 52.14 339 79 C339.33 79.99 339.66 80.98 340 82 C342.31 82.33 344.62 82.66 347 83 C346.67 91.58 346.34 100.16 346 109 C344.35 109.66 342.7 110.32 341 111 C321.89502683 130.10497317 338.34197909 164.98365217 338 192 C226.46 192 114.92 192 0 192 C0 188.04 0 184.08 0 180 C2.48787001 179.99365209 2.48787001 179.99365209 5.02600002 179.98717594 C44.35455776 179.88660559 83.68309888 179.78091665 123.0116257 179.66888306 C127.84718721 179.65511268 132.68274884 179.64138571 137.51831055 179.62768555 C138.96238402 179.62359309 138.96238402 179.62359309 140.43563069 179.61941796 C156.0451433 179.57528473 171.6546632 179.53467121 187.26418858 179.49534739 C203.26857023 179.45495091 219.2729383 179.41079766 235.27729994 179.36312145 C245.16113293 179.33379748 255.04496485 179.3074405 264.92881549 179.28482103 C271.69694582 179.26905189 278.46505951 179.24964971 285.2331714 179.22733159 C289.14408408 179.21454432 293.05498387 179.20341532 296.96591187 179.19658089 C301.19576329 179.18914752 305.4255521 179.17409272 309.65538025 179.15821838 C310.90535276 179.15724028 312.15532527 179.15626217 313.44317573 179.15525442 C314.56682016 179.14977998 315.69046458 179.14430554 316.84815884 179.1386652 C317.82593869 179.13600716 318.80371854 179.13334911 319.81112808 179.13061053 C321.9768639 179.24438042 321.9768639 179.24438042 323 178 C323.10939916 175.72206256 323.14693659 173.44067599 323.15821838 171.16014099 C323.16561287 170.07730583 323.16561287 170.07730583 323.17315674 168.97259521 C323.18862434 166.52787529 323.19691819 164.08318145 323.20532227 161.63842773 C323.21503091 159.86612495 323.225176 158.09382451 323.23572445 156.32152653 C323.26286019 151.5583726 323.28399113 146.79520939 323.30391693 142.03202057 C323.32348612 137.56889355 323.34841901 133.10580296 323.3729248 128.6427002 C323.44153152 115.57432744 323.50148223 102.5059104 323.5625 89.4375 C323.706875 60.253125 323.85125 31.06875 324 1 C217.08 1 110.16 1 0 1 C0 0.67 0 0.34 0 0 Z " fill="#28CDC8" transform="translate(87,105)"/>
<path d="M0 0 C159.06 0 318.12 0 482 0 C482 4.29 482 8.58 482 13 C480.26469959 14.73530041 478.02139998 14.12454292 475.70817411 14.13293558 C474.94100116 14.13059442 474.17382821 14.12825325 473.38340759 14.12584114 C472.16649717 14.1280213 472.16649717 14.1280213 470.92500269 14.13024551 C468.17125635 14.1339325 465.41756442 14.13040669 462.66381836 14.12698364 C460.68376353 14.1281344 458.70370891 14.12972161 456.72365475 14.13171089 C451.25508354 14.13591049 445.78652965 14.13381069 440.31795835 14.13072467 C434.4310567 14.12847334 428.54415813 14.13194884 422.65725708 14.13470459 C411.78213285 14.13890601 400.90701461 14.13852535 390.03189006 14.13579312 C379.98682545 14.1332817 369.94176287 14.13261893 359.896698 14.13381577 C359.23146541 14.13389215 358.56623282 14.13396854 357.88084166 14.13404724 C355.18072951 14.13435855 352.48061736 14.13467695 349.78050521 14.135007 C324.42977011 14.13806887 299.07903856 14.13528798 273.72830401 14.1299101 C251.18507838 14.12516418 228.6418584 14.12558879 206.09863281 14.13037109 C180.79549987 14.13572088 155.49237007 14.13785176 130.18923664 14.13475883 C127.4939251 14.13443809 124.79861355 14.13412525 122.103302 14.13381577 C121.43960369 14.13373669 120.77590539 14.13365761 120.09209501 14.13357614 C110.05113174 14.13243666 100.01017072 14.13377266 89.96920776 14.13629532 C78.55696541 14.13909249 67.14472995 14.13835682 55.73248839 14.13301457 C49.90363673 14.13037643 44.07479657 14.12937439 38.24594498 14.13266373 C32.91917377 14.13562439 27.5924248 14.13403775 22.26565564 14.12868617 C20.32961077 14.127561 18.39356406 14.12815536 16.45752037 14.13056196 C13.84385025 14.13356385 11.2302583 14.13052367 8.61659241 14.12584114 C7.84941946 14.12818231 7.08224651 14.13052347 6.29182589 14.13293558 C1.11415034 14.11415034 1.11415034 14.11415034 0 13 C0 8.71 0 4.42 0 0 Z " fill="#6D95A0" transform="translate(15,424)"/>
<path d="M0 0 C133.98 0 267.96 0 406 0 C417.45921715 21.77251258 417.45921715 21.77251258 420.9921875 28.921875 C421.39027618 29.72183899 421.78836487 30.52180298 422.19851685 31.3460083 C423.42607885 33.81298493 424.65091432 36.28129686 425.875 38.75 C427.51583614 42.0584875 429.1594711 45.36556393 430.8046875 48.671875 C431.16827362 49.40734558 431.53185974 50.14281616 431.90646362 50.90057373 C433.59686764 54.29743564 435.33970098 57.62356561 437.26220703 60.89550781 C439 64 439 64 439 66 C384.55 66 330.1 66 274 66 C273.67 63.69 273.34 61.38 273 59 C274.25423264 58.99857498 275.50846527 58.99714996 276.80070496 58.99568176 C288.61639019 58.97901768 300.43173077 58.9362618 312.24723339 58.86790943 C318.32185498 58.83360786 324.39622423 58.80852446 330.47094727 58.80444336 C336.33262427 58.80016731 342.19373171 58.77176134 348.05523109 58.72656822 C350.2923075 58.71357116 352.52945198 58.70929331 354.76656151 58.71384621 C357.89863077 58.71873628 361.02902517 58.69272893 364.16088867 58.65942383 C365.08733688 58.66804947 366.0137851 58.67667511 366.9683075 58.68556213 C371.4713028 58.60520822 373.4053176 58.45460001 377.08468628 55.64193726 C379.4541317 52.37358175 379.62458685 50.96012628 379 47 C377.89045446 43.9443959 377.89045446 43.9443959 376.25390625 40.88671875 C375.66287109 39.71947266 375.07183594 38.55222656 374.46289062 37.34960938 C373.82962185 36.1288052 373.19615832 34.90810203 372.5625 33.6875 C371.97017578 32.52154297 371.37785156 31.35558594 370.76757812 30.15429688 C365.95136565 20.71246002 360.95965311 11.36823365 356 2 C238.52 1.67 121.04 1.34 0 1 C0 0.67 0 0.34 0 0 Z " fill="#83A9B7" transform="translate(53,343)"/>
<path d="M0 0 C32.34 0 64.68 0 98 0 C101 8 101 8 105 25 C68.04 25 31.08 25 -7 25 C-3 8 -3 8 0 0 Z " fill="#DEE9EE" transform="translate(207,384)"/>
<path d="M0 0 C80.685 0.495 80.685 0.495 163 1 C162.67 3.31 162.34 5.62 162 8 C107.55 8 53.1 8 -3 8 C-1 2 -1 2 0 0 Z " fill="#85ADBB" transform="translate(23,401)"/>
<path d="M0 0 C0.33 0.99 0.66 1.98 1 3 C35.98 3 70.96 3 107 3 C107.33 2.01 107.66 1.02 108 0 C108.99 4.95 108.99 4.95 110 10 C73.04 10 36.08 10 -2 10 C-1.34 6.7 -0.68 3.4 0 0 Z " fill="#BDCDD4" transform="translate(202,399)"/>
</svg>
